<?xml version="1.0" encoding="utf-8"?>
<!-- Generator: Adobe Illustrator 24.3.0, SVG Export Plug-In . SVG Version: 6.00 Build 0)  -->
<svg version="1.1" id="icon" xmlns="http://www.w3.org/2000/svg" xmlns:xlink="http://www.w3.org/1999/xlink" x="0px" y="0px"
	 viewBox="0 0 31.2 17.4" style="enable-background:new 0 0 31.2 17.4;" xml:space="preserve">
<style type="text/css">
	.st0{fill:#7F52EF;}
	.st1{fill:#621FCC;}
	.st2{fill:#EEEFEE;}
</style>
<path class="st0" d="M4.6,5.8h22.2c0.3,0,0.5,0.2,0.5,0.4v1.7c0,0.2-0.3,0.4-0.5,0.4H4.6c-0.3,0-0.5-0.2-0.5-0.4V6.2
	C4,6,4.2,5.8,4.6,5.8z"/>
<path class="st0" d="M5.4,8.1h20.5l0,0v8.2c0,0.6-0.7,1.1-1.4,1.1H6.8c-0.8,0-1.4-0.5-1.4-1.1L5.4,8.1L5.4,8.1L5.4,8.1z"/>
<g>
	<path class="st1" d="M5.4,8.3h20.5V9H5.4V8.3z"/>
	<path class="st1" d="M22.4,10.2L22.4,10.2c0.4,0,0.7,0.3,0.7,0.6v4.9c0,0.3-0.3,0.6-0.7,0.6l0,0c-0.4,0-0.7-0.3-0.7-0.6v-4.8
		C21.6,10.5,22,10.2,22.4,10.2z"/>
	<path class="st1" d="M17.9,10.2L17.9,10.2c0.4,0,0.7,0.3,0.7,0.6v4.9c0,0.3-0.3,0.6-0.7,0.6l0,0c-0.4,0-0.7-0.3-0.7-0.6v-4.8
		C17.2,10.5,17.5,10.2,17.9,10.2z"/>
	<path class="st1" d="M13.4,10.2L13.4,10.2c0.4,0,0.7,0.3,0.7,0.6v4.9c0,0.3-0.3,0.6-0.7,0.6l0,0c-0.4,0-0.7-0.3-0.7-0.6v-4.8
		C12.7,10.5,13,10.2,13.4,10.2z"/>
	<path class="st1" d="M8.9,10.2L8.9,10.2c0.4,0,0.7,0.3,0.7,0.6v4.9c0,0.3-0.3,0.6-0.7,0.6l0,0c-0.4,0-0.7-0.3-0.7-0.6v-4.8
		C8.2,10.5,8.6,10.2,8.9,10.2z"/>
	<path class="st1" d="M23.3,7c0,0.6-0.6,1-1.3,1c-0.7,0-1.3-0.5-1.3-1c0-0.6,0.6-1,1.3-1l0,0C22.7,6,23.3,6.5,23.3,7L23.3,7z"/>
</g>
<path class="st2" d="M17.3,0.1L17.3,0.1c0.4-0.2,0.9-0.1,1.2,0.3l4.3,6.2c0.2,0.3,0.1,0.7-0.3,1l0,0c-0.5,0.1-1,0-1.3-0.3l-4.3-6.2
	C16.7,0.7,16.9,0.3,17.3,0.1z"/>
<path class="st1" d="M8,7c0,0.6,0.6,1,1.3,1s1.3-0.5,1.3-1c0-0.6-0.6-1-1.3-1l0,0C8.6,6,8,6.5,8,7z"/>
<path class="st2" d="M8.8,7.6L8.8,7.6C8.4,7.4,8.2,7,8.5,6.6l4.3-6.2C13,0.1,13.6-0.1,14,0.1l0,0c0.4,0.2,0.6,0.6,0.3,1L10,7.3
	C9.8,7.6,9.3,7.7,8.8,7.6z"/>
</svg>
